<svg width="149" height="149" viewBox="0 0 149 149" fill="none" xmlns="http://www.w3.org/2000/svg">
<ellipse cx="74.5352" cy="74.1082" rx="74.3077" ry="74.1082" fill="#8451CC"/>
<path d="M51 95.0908C51 96.2766 51.9604 97.238 53.1472 97.238C54.334 97.238 55.2944 96.2766 55.2944 95.0908C55.2944 87.5138 59.6564 80.8058 66.4556 77.6337C68.8086 79.1628 71.608 80.0605 74.6169 80.0605C77.6373 80.0605 80.4474 79.1568 82.806 77.6169C84.8357 78.575 86.7168 79.8642 88.2822 81.4287C91.9328 85.0804 93.9437 89.9326 93.9437 95.0908C93.9437 96.2766 94.9041 97.238 96.0909 97.238C97.2777 97.238 98.2381 96.2766 98.2381 95.0908C98.2381 88.7856 95.7806 82.8557 91.3185 78.3925C89.8254 76.8986 88.0901 75.6177 86.2283 74.5617C88.3631 71.9659 89.6473 68.6455 89.6473 65.0302C89.6473 56.7424 82.9037 49.9999 74.6169 49.9999C66.3302 49.9999 59.5866 56.7424 59.5866 65.0302C59.5866 68.6367 60.8656 71.949 62.9909 74.542C55.62 78.6919 51 86.4459 51 95.0908ZM74.6169 54.2943C80.5364 54.2943 85.3529 59.1108 85.3529 65.0302C85.3529 70.9497 80.5364 75.7662 74.6169 75.7662C68.6975 75.7662 63.881 70.9497 63.881 65.0302C63.881 59.1108 68.6975 54.2943 74.6169 54.2943Z" fill="#9DC944"/>
</svg>
