<svg width="48" height="48" viewBox="0 0 48 48" fill="none" xmlns="http://www.w3.org/2000/svg">
<g clip-path="url(#clip0_512_3053)">
<path fill-rule="evenodd" clip-rule="evenodd" d="M24 45.6C35.9293 45.6 45.6 35.9296 45.6 24C45.6 12.0707 35.9296 2.39995 24 2.39995C12.0707 2.39995 2.39995 12.0707 2.39995 24C2.39995 35.9293 12.0707 45.6 24 45.6ZM24 48C37.2547 48 48 37.2547 48 24C48 10.7451 37.2547 0 24 0C10.7451 0 0 10.7451 0 24C0 37.2547 10.7451 48 24 48Z" fill="#FFF72E"/>
<path fill-rule="evenodd" clip-rule="evenodd" d="M30.2366 24L19.2 16.6424V31.3579L30.2366 24ZM32.4663 22.6023C33.464 23.2673 33.464 24.733 32.4663 25.3981L19.4117 34.1013C18.2953 34.8456 16.7998 34.0451 16.7998 32.7033V15.297C16.7998 13.9552 18.2953 13.1549 19.4117 13.8993L32.4663 22.6023Z" fill="#FFF72E"/>
</g>
<defs>
<clipPath id="clip0_512_3053">
<rect width="48" height="48" fill="white"/>
</clipPath>
</defs>
</svg>
