<svg width="48" height="48" viewBox="0 0 48 48" fill="none" xmlns="http://www.w3.org/2000/svg">
<g clip-path="url(#clip0_512_3055)">
<path d="M40.9705 7.02938C36.4375 2.49647 30.4106 0 24 0C17.5893 0 11.5624 2.49647 7.02938 7.02938C2.49647 11.5624 0 17.5893 0 24C0 30.4107 2.49647 36.4376 7.02938 40.9706C11.5624 45.5035 17.5893 48 24 48C30.4106 48 36.4375 45.5035 40.9705 40.9706C45.5035 36.4376 48 30.4106 48 24C48 17.5894 45.5035 11.5624 40.9705 7.02938ZM24 45.1875C12.3172 45.1875 2.8125 35.6828 2.8125 24C2.8125 12.3172 12.3172 2.8125 24 2.8125C35.6828 2.8125 45.1875 12.3172 45.1875 24C45.1875 35.6828 35.6828 45.1875 24 45.1875Z" fill="#FFF72E"/>
<path d="M28.5186 12.9116C27.7419 12.9116 27.1123 13.5412 27.1123 14.3178V33.6825C27.1123 34.4592 27.7419 35.0888 28.5186 35.0888C29.2952 35.0888 29.9248 34.4592 29.9248 33.6825V14.3178C29.9248 13.5412 29.2952 12.9116 28.5186 12.9116Z" fill="#FFF72E"/>
<path d="M19.481 12.9116C18.7043 12.9116 18.0747 13.5412 18.0747 14.3178V33.6825C18.0747 34.4592 18.7043 35.0888 19.481 35.0888C20.2576 35.0888 20.8872 34.4592 20.8872 33.6825V14.3178C20.8872 13.5412 20.2576 12.9116 19.481 12.9116Z" fill="#FFF72E"/>
</g>
<defs>
<clipPath id="clip0_512_3055">
<rect width="48" height="48" fill="white"/>
</clipPath>
</defs>
</svg>
